<svg width="326" height="16" viewBox="0 0 326 16" fill="none" xmlns="http://www.w3.org/2000/svg">
<path d="M2.0383 2C125.398 13.3444 204.72 15.707 253.755 14.0529C278.273 13.2259 295.213 11.395 306.297 9.18237C311.84 8.07594 315.911 6.87566 318.731 5.66158C320.14 5.05457 321.231 4.44653 322.035 3.84926C322.841 3.25059 323.346 2.6721 323.601 2.12972L324 2.34114C323.699 2.98051 323.129 3.61332 322.291 4.2361C321.451 4.86024 320.327 5.48388 318.898 6.0992C316.04 7.32987 311.937 8.53742 306.379 9.64676C295.263 11.8657 278.298 13.6982 253.769 14.5256C204.71 16.1805 125.369 13.8161 2 2.47085L2.0383 2Z" fill="#D96E11" stroke="#D96E11" stroke-width="2"/>
</svg>
