<svg width="329" height="20" viewBox="0 0 329 20" fill="none" xmlns="http://www.w3.org/2000/svg">
<path d="M3.0383 4C126.398 15.3444 205.72 17.707 254.755 16.0529C279.273 15.2259 296.213 13.395 307.297 11.1824C312.84 10.0759 316.911 8.87566 319.731 7.66158C321.14 7.05457 322.231 6.44653 323.035 5.84926C323.841 5.25059 324.346 4.6721 324.601 4.12972L325 4.34114C324.699 4.98051 324.129 5.61332 323.291 6.2361C322.451 6.86024 321.327 7.48388 319.898 8.0992C317.04 9.32987 312.937 10.5374 307.379 11.6468C296.263 13.8657 279.298 15.6982 254.769 16.5256C205.71 18.1805 126.369 15.8161 3 4.47085L3.0383 4Z" fill="#D96E11" stroke="#D96E11" stroke-width="5"/>
</svg>
