<svg width="23" height="23" viewBox="0 0 23 23" fill="none" xmlns="http://www.w3.org/2000/svg">
<path d="M11.4607 2.48275C14.5207 2.48275 14.8837 2.49375 16.0928 2.54692C19.1986 2.68258 20.6494 4.097 20.7907 7.056C20.8461 8.21558 20.8566 8.56392 20.8566 11.5009C20.8566 14.4388 20.8451 14.7863 20.7907 15.9458C20.6484 18.9021 19.2015 20.3192 16.0928 20.4549C14.8837 20.5081 14.5226 20.5191 11.4607 20.5191C8.40071 20.5191 8.03779 20.5081 6.82963 20.4549C3.71614 20.3183 2.27304 18.8975 2.13169 15.9449C2.0763 14.7853 2.06484 14.4379 2.06484 11.5C2.06484 8.563 2.07726 8.21558 2.13169 7.05508C2.274 4.097 3.72091 2.68167 6.82963 2.546C8.03874 2.49375 8.40071 2.48275 11.4607 2.48275ZM11.4607 0.5C8.34818 0.5 7.95851 0.512833 6.73604 0.566C2.57389 0.749333 0.260731 2.96583 0.0697194 6.96433C0.0133708 8.13858 0 8.51258 0 11.5C0 14.4874 0.0133708 14.8623 0.0687643 16.0357C0.259776 20.0305 2.56911 22.2507 6.73508 22.434C7.95852 22.4872 8.34818 22.5 11.4607 22.5C14.5733 22.5 14.9639 22.4872 16.1864 22.434C20.3447 22.2507 22.6636 20.0342 22.8517 16.0357C22.9081 14.8623 22.9214 14.4874 22.9214 11.5C22.9214 8.51258 22.9081 8.13858 22.8527 6.96525C22.6655 2.97408 20.3533 0.75025 16.1873 0.566917C14.9639 0.512833 14.5733 0.5 11.4607 0.5ZM11.4607 5.8515C8.21065 5.8515 5.57564 8.38058 5.57564 11.5C5.57564 14.6194 8.21065 17.1494 11.4607 17.1494C14.7108 17.1494 17.3458 14.6203 17.3458 11.5C17.3458 8.38058 14.7108 5.8515 11.4607 5.8515ZM11.4607 15.1667C9.35099 15.1667 7.64048 13.5258 7.64048 11.5C7.64048 9.47508 9.35099 7.83333 11.4607 7.83333C13.5704 7.83333 15.281 9.47508 15.281 11.5C15.281 13.5258 13.5704 15.1667 11.4607 15.1667ZM17.5788 4.30875C16.8186 4.30875 16.2026 4.9 16.2026 5.62875C16.2026 6.3575 16.8186 6.94875 17.5788 6.94875C18.3381 6.94875 18.9532 6.3575 18.9532 5.62875C18.9532 4.9 18.3381 4.30875 17.5788 4.30875Z" fill="white"/>
</svg>
