<svg width="25" height="25" viewBox="0 0 25 25" fill="none" xmlns="http://www.w3.org/2000/svg">
<path d="M4.16671 20.8332C3.59379 20.8332 3.099 20.6335 2.68233 20.2342C2.28303 19.8175 2.08337 19.3228 2.08337 18.7498V6.24984C2.08337 5.67692 2.28303 5.19081 2.68233 4.7915C3.099 4.37484 3.59379 4.1665 4.16671 4.1665H20.8334C21.4063 4.1665 21.8924 4.37484 22.2917 4.7915C22.7084 5.19081 22.9167 5.67692 22.9167 6.24984V18.7498C22.9167 19.3228 22.7084 19.8175 22.2917 20.2342C21.8924 20.6335 21.4063 20.8332 20.8334 20.8332H4.16671ZM12.5 13.5415L20.8334 8.33317V6.24984L12.5 11.4582L4.16671 6.24984V8.33317L12.5 13.5415Z" fill="white"/>
</svg>
