<svg width="23" height="23" viewBox="0 0 23 23" fill="none" xmlns="http://www.w3.org/2000/svg">
<path d="M12.4411 1.41964C12.4411 1.17613 12.5423 0.942585 12.7223 0.770393C12.9023 0.598202 13.1465 0.501466 13.401 0.501466C15.946 0.50414 18.3859 1.47236 20.1854 3.19369C21.985 4.91502 22.9972 7.24888 23 9.68322C23 9.92673 22.8989 10.1603 22.7189 10.3325C22.5388 10.5047 22.2947 10.6014 22.0401 10.6014C21.7855 10.6014 21.5414 10.5047 21.3614 10.3325C21.1813 10.1603 21.0802 9.92673 21.0802 9.68322C21.0779 7.73577 20.2681 5.86871 18.8285 4.49165C17.3889 3.11459 15.437 2.34 13.401 2.33782C13.1465 2.33782 12.9023 2.24108 12.7223 2.06889C12.5423 1.8967 12.4411 1.66316 12.4411 1.41964ZM13.401 6.01052C14.4194 6.01052 15.396 6.39746 16.116 7.08622C16.8361 7.77499 17.2406 8.70915 17.2406 9.68322C17.2406 9.92673 17.3418 10.1603 17.5218 10.3325C17.7018 10.5047 17.9459 10.6014 18.2005 10.6014C18.4551 10.6014 18.6993 10.5047 18.8793 10.3325C19.0593 10.1603 19.1604 9.92673 19.1604 9.68322C19.1589 8.22257 18.5516 6.82217 17.4718 5.78934C16.3921 4.75651 14.9281 4.17562 13.401 4.17417C13.1465 4.17417 12.9023 4.2709 12.7223 4.44309C12.5423 4.61528 12.4411 4.84883 12.4411 5.09234C12.4411 5.33586 12.5423 5.5694 12.7223 5.74159C12.9023 5.91378 13.1465 6.01052 13.401 6.01052ZM22.1294 15.8708C22.6856 16.4044 22.998 17.1271 22.998 17.8807C22.998 18.6342 22.6856 19.357 22.1294 19.8906L21.2559 20.8537C13.3943 28.0531 -5.73641 9.75851 1.67399 2.21478L2.77787 1.29661C3.3363 0.779377 4.08518 0.493248 4.86248 0.500121C5.63977 0.506994 6.38299 0.806317 6.93134 1.33333C6.96109 1.3618 8.73978 3.57184 8.73978 3.57184C9.26756 4.10221 9.56136 4.80672 9.56011 5.53894C9.55886 6.27116 9.26265 6.97476 8.73306 7.50347L7.6215 8.84033C8.23665 10.27 9.14108 11.5694 10.2828 12.6637C11.4246 13.758 12.7811 14.6258 14.2745 15.2171L15.6808 14.1474C16.2336 13.6412 16.969 13.3582 17.7343 13.3572C18.4996 13.3562 19.2358 13.6372 19.7901 14.1419C19.7901 14.1419 22.0996 15.8423 22.1294 15.8708ZM20.8086 17.2058C20.8086 17.2058 18.5115 15.5155 18.4818 15.487C18.284 15.2994 18.0168 15.1942 17.7383 15.1942C17.4598 15.1942 17.1926 15.2994 16.9949 15.487C16.969 15.5127 15.0329 16.9882 15.0329 16.9882C14.9024 17.0876 14.7471 17.1527 14.5823 17.1771C14.4175 17.2016 14.2489 17.1846 14.0931 17.1278C12.1584 16.4388 10.4011 15.36 8.94024 13.9647C7.47937 12.5694 6.34907 10.8901 5.62588 9.04049C5.56176 8.88941 5.54085 8.72472 5.56531 8.56335C5.58977 8.40198 5.65872 8.24976 5.76506 8.12232C5.76506 8.12232 7.30762 6.26944 7.33353 6.24557C7.52961 6.05641 7.63962 5.80082 7.63962 5.53444C7.63962 5.26806 7.52961 5.01247 7.33353 4.82332C7.30378 4.79577 5.53661 2.59674 5.53661 2.59674C5.33589 2.42459 5.07394 2.33239 4.80444 2.33905C4.53495 2.34571 4.27832 2.45072 4.08716 2.63255L2.98328 3.55073C-2.43245 9.77962 14.1459 24.7578 19.8525 19.5995L20.727 18.6354C20.9319 18.4539 21.055 18.2032 21.0702 17.9364C21.0854 17.6696 20.9916 17.4076 20.8086 17.2058Z" fill="white"/>
</svg>
