<svg width="21" height="21" viewBox="0 0 21 21" fill="none" xmlns="http://www.w3.org/2000/svg">
<path d="M10.4941 0.0834961C8.43384 0.0834961 6.41989 0.694423 4.70687 1.83902C2.99386 2.98362 1.65873 4.61048 0.870319 6.51388C0.081906 8.41727 -0.124379 10.5117 0.277551 12.5324C0.67948 14.553 1.67157 16.4091 3.12837 17.8659C4.58517 19.3227 6.44124 20.3147 8.46187 20.7167C10.4825 21.1186 12.577 20.9123 14.4804 20.1239C16.3837 19.3355 18.0106 18.0004 19.1552 16.2874C20.2998 14.5743 20.9107 12.5604 20.9107 10.5002C20.9108 9.13219 20.6415 7.7776 20.118 6.51374C19.5946 5.24988 18.8273 4.10151 17.86 3.13421C16.8927 2.16691 15.7443 1.39963 14.4805 0.876186C13.2166 0.35274 11.862 0.0833826 10.4941 0.0834961V0.0834961ZM13.8061 15.8673C13.7671 15.9645 13.7077 16.0523 13.6321 16.1247C13.5564 16.1971 13.4661 16.2525 13.3673 16.2872C13.2684 16.3219 13.1633 16.335 13.059 16.3258C12.9546 16.3165 12.8535 16.285 12.7623 16.2335L9.93452 14.0362L8.11961 15.7106C8.07749 15.7417 8.02823 15.7617 7.97635 15.7688C7.92447 15.7759 7.87165 15.7698 7.82273 15.7511L8.17065 12.6382L8.18178 12.647L8.1889 12.5855C8.1889 12.5855 13.2774 7.95271 13.4847 7.75533C13.6946 7.55845 13.6254 7.51575 13.6254 7.51575C13.6373 7.27561 13.2488 7.51575 13.2488 7.51575L6.50656 11.8533L3.69876 10.897C3.69876 10.897 3.26751 10.7423 3.22689 10.4022C3.18418 10.0647 3.71281 9.88141 3.71281 9.88141L14.8764 5.44651C14.8764 5.44651 15.7941 5.03763 15.7941 5.71475L13.8061 15.8673Z" fill="white"/>
</svg>
